<svg xmlns="http://www.w3.org/2000/svg" xmlns:xlink="http://www.w3.org/1999/xlink" width="625.542" height="368.534" class="st12" color-interpolation-filters="sRGB" viewBox="0 0 469.157 276.401" xml:space="preserve"><style type="text/css">.st1,.st2{fill:#fff;stroke:none;stroke-linecap:round;stroke-linejoin:round;stroke-width:.72}.st2{fill:none}.st3{fill:#000;font-family:Arial;font-size:.833336em;font-weight:700}.st4{font-size:1em}.st5,.st6,.st7{stroke:#000;stroke-linecap:round;stroke-linejoin:round;stroke-width:4.08}.st6,.st7{stroke-width:.72}.st7{marker-end:url(#mrkr13-30)}.st10,.st8,.st9{stroke:#000}.st8,.st9{fill:#000}.st8{fill-opacity:1;stroke-opacity:1;stroke-width:.22222222222222}.st10,.st9{stroke-linecap:round;stroke-linejoin:round;stroke-width:.72}.st10{fill:#fff}.st11{fill:#000;font-family:Arial;font-size:.666664em}.st12{fill:none;fill-rule:evenodd;font-size:12;overflow:visible;stroke-linecap:square;stroke-miterlimit:3}</style><defs id="Markers"><g id="lend13"><path d="M 3 1 L -0 0 L 3 -1 L 3 1" style="stroke:none"/></g><marker id="mrkr13-30" class="st8" markerUnits="strokeWidth" orient="auto" refX="-13.5"><use transform="scale(-4.5,-4.5)" xlink:href="#lend13"/></marker></defs><g><title>Pagina 1</title><g id="shape139-1" transform="translate(0.72,-0.72)"><title>Foglio.139</title><rect width="467.717" height="274.961" x="0" y="1.44" class="st1"/></g><g id="shape11-3" transform="translate(318.073,-252.876)"><title>Foglio.11</title><desc>JSP Page</desc><rect width="62.617" height="17.263" x="0" y="259.138" class="st2"/><text x="8.52" y="270.77" class="st3">JSP Page</text></g><g id="shape12-6" transform="translate(258.418,-10.6094)"><title>Foglio.12</title><desc>TRANSLATION PHASE</desc><rect width="124.98" height="17.263" x="0" y="259.138" class="st2"/><text x="8.04" y="270.77" class="st3">TRANSLATION PHASE</text></g><g id="shape144-9" transform="translate(68.7515,-1.91409)"><title>Foglio.144</title><desc>REQUEST PROCESSING PHASE</desc><rect width="127.559" height="23.06" x="0" y="253.341" class="st2"/><text x="4.88" y="261.87" class="st3">REQUEST PROCESSING <tspan x="46.55" class="st4" dy="1.2em">PHASE</tspan></text></g><g id="shape1-13" transform="translate(427.496,235.996) rotate(90) scale(-1,1)"><title>Foglio.1</title><path d="M0 276.4 L209.76 276.4" class="st5"/></g><g id="shape2-16" transform="translate(3.55465,-253.003)"><title>Foglio.2</title><desc>JSP Container</desc><rect width="108.227" height="17.263" x="0" y="259.138" class="st2"/><text x="19.94" y="270.77" class="st3">JSP Container</text></g><g id="shape3-19" transform="translate(571.924,235.996) rotate(90) scale(-1,1)"><title>Foglio.3</title><path d="M0 276.4 L209.76 276.4" class="st6"/></g><g id="shape4-22" transform="translate(3.55465,-207.649)"><title>Foglio.4</title><desc>init event</desc><rect width="56.948" height="17.263" x="0" y="259.138" class="st2"/><text x="6.53" y="270.77" class="st3">init event</text></g><g id="shape5-25" transform="translate(105.526,395.076) scale(1,-1)"><title>Foglio.5</title><path d="M0 276.4 L58.3 276.4" class="st7"/></g><g id="shape6-31" transform="translate(436.199,114.106) rotate(90)"><title>Foglio.6</title><path d="M8.79 276.4 L0 276.4 L4.39 262.49 L8.79 276.4 Z" class="st9"/></g><g id="shape9-33" transform="translate(3.55465,-147.866)"><title>Foglio.9</title><desc>request</desc><rect width="56.948" height="17.263" x="0" y="259.138" class="st2"/><text x="10.41" y="270.77" class="st3">request</text></g><g id="shape10-36" transform="translate(4.92236,-125.444)"><title>Foglio.10</title><desc>response</desc><rect width="56.948" height="17.263" x="0" y="259.138" class="st2"/><text x="6.24" y="270.77" class="st3">response</text></g><g id="shape7-39" transform="translate(176.544,417.753) rotate(180)"><title>Foglio.7</title><path d="M0 276.4 L58.3 276.4" class="st7"/></g><g id="shape8-44" transform="translate(-154.129,136.783) rotate(-90) scale(-1,1)"><title>Foglio.8</title><path d="M8.79 276.4 L0 276.4 L4.39 262.49 L8.79 276.4 Z" class="st9"/></g><g id="shape13-46" transform="translate(105.526,338.1) scale(1,-1)"><title>Foglio.13</title><path d="M0 276.4 L58.3 276.4" class="st7"/></g><g id="shape14-51" transform="translate(436.199,57.1294) rotate(90)"><title>Foglio.14</title><path d="M8.79 276.4 L0 276.4 L4.39 262.49 L8.79 276.4 Z" class="st9"/></g><g id="shape15-53" transform="translate(3.64411,-71.5861)"><title>Foglio.15</title><desc>destroy event</desc><rect width="79.536" height="17.263" x="0" y="259.138" class="st2"/><text x="7.26" y="270.77" class="st3">destroy event</text></g><g id="shape16-56" transform="translate(105.615,471.583) scale(1,-1)"><title>Foglio.16</title><path d="M0 276.4 L58.3 276.4" class="st7"/></g><g id="shape17-61" transform="translate(436.289,190.613) rotate(90)"><title>Foglio.17</title><path d="M8.79 276.4 L0 276.4 L4.39 262.49 L8.79 276.4 Z" class="st9"/></g><g id="shape18-63" transform="translate(186.389,-201.98)"><title>Foglio.18</title><rect width="86.457" height="28.346" x="0" y="248.054" class="st10" rx="8.504" ry="8.504"/></g><g id="shape19-65" transform="translate(196.311,-207.649)"><title>Foglio.19</title><desc>jspInit</desc><rect width="48.189" height="17.263" x="0" y="259.138" class="st2"/><text x="9.37" y="270.77" class="st3">jspInit</text></g><g id="shape20-68" transform="translate(186.389,-126.862)"><title>Foglio.20</title><rect width="86.457" height="42.52" x="0" y="233.881" class="st10" rx="8.504" ry="8.504"/></g><g id="shape21-70" transform="translate(187.807,-135.366)"><title>Foglio.21</title><desc>_jspService</desc><rect width="68.031" height="25.895" x="0" y="250.506" class="st2"/><text x="6.22" y="266.45" class="st3">_jspService</text></g><g id="shape22-73" transform="translate(186.389,-65.9169)"><title>Foglio.22</title><rect width="86.457" height="28.346" x="0" y="248.054" class="st10" rx="8.504" ry="8.504"/></g><g id="shape23-75" transform="translate(190.641,-71.5861)"><title>Foglio.23</title><desc>jspDestroy</desc><rect width="62.362" height="17.263" x="0" y="259.138" class="st2"/><text x="5.34" y="270.77" class="st3">jspDestroy</text></g><g id="shape24-78" transform="translate(304.027,-68.7515)"><title>Foglio.24</title><rect width="158.74" height="161.575" x="0" y="114.826" class="st10"/></g><g id="shape25-80" transform="translate(312.531,-196.311)"><title>Foglio.25</title><desc>&lt;%! public void jspInit() ...</desc><rect width="130.521" height="28.602" x="0" y="247.799" class="st2"/><text x="4" y="259.7" class="st11">&lt;%!<tspan x="4" class="st4" dy="1.2em">public void jspInit</tspan>() ...</text></g><g id="shape26-84" transform="translate(312.531,-142.197)"><title>Foglio.26</title><desc>public void jspDestroy() … %&gt;</desc><rect width="130.521" height="28.602" x="0" y="247.799" class="st2"/><text x="4" y="259.7" class="st11">public void jspDestroy() …<tspan x="4" class="st4" dy="1.2em">%</tspan>&gt;</text></g><g id="shape27-88" transform="translate(312.531,-102.512)"><title>Foglio.27</title><desc>&lt;html&gt; This is the response ... &lt;/html&gt;</desc><rect width="130.521" height="39.94" x="0" y="236.46" class="st2"/><text x="4" y="249.23" class="st11">&lt;html&gt;<tspan x="4" class="st4" dy="1.2em">This is the response </tspan>...<tspan x="4" class="st4" dy="1.2em">&lt;</tspan>/html&gt;</text></g></g></svg>