<svg xmlns="http://www.w3.org/2000/svg" xmlns:ev="http://www.w3.org/2001/xml-events" xmlns:xlink="http://www.w3.org/1999/xlink" width="521.401" height="827.986" class="st11" color-interpolation-filters="sRGB" viewBox="0 0 391.051 620.989" xml:space="preserve"><style type="text/css">.st1{fill:#fff;stroke:none}.st1,.st2,.st3,.st4{stroke-linecap:round;stroke-linejoin:round;stroke-width:.719999}.st2{fill:#bfbfbf;stroke:#bfbfbf}.st3{fill:#fff;stroke:#000}.st4{fill:none;stroke:none}.st5{fill:#000;font-family:Arial;font-size:.666664em}.st6{fill:none}.st7{stroke:#000;stroke-linecap:round;stroke-linejoin:round;stroke-width:.719999}.st8{fill:#000;font-family:Arial;font-size:.666664em}.st8,.st9{font-style:italic}.st10,.st9{font-size:1em}.st11{fill:none;fill-rule:evenodd;font-size:12px;overflow:visible;stroke-linecap:square;stroke-miterlimit:3}</style><g><title>Pagina 1</title><g id="shape1-1" transform="translate(18.36,-18.36)"><title>Foglio.139</title><rect width="354.331" height="584.269" x="0" y="36.72" class="st1"/></g><g id="shape2-3" transform="translate(24.0293,-574.282)"><title>Foglio.2</title><path d="M-0 612.48 A8.50413 8.50413 -180 0 0 8.5 620.99 L147.06 620.99 A8.50413 8.50413 -180 0 0 155.56 612.48 L155.56 610.6 A8.50413 8.50413 -180 0 0 147.06 602.09 L8.5 602.09 A8.50413 8.50413 -180 0 0 -0 610.6 L0 612.48 Z" class="st2"/></g><g id="shape3-5" transform="translate(21.0327,-577.92)"><title>Foglio.3</title><path d="M0 612.48 A8.50413 8.50413 -180 0 0 8.5 620.99 L145.81 620.99 A8.50413 8.50413 -180 0 0 154.31 612.48 L154.31 610.6 A8.50413 8.50413 -180 0 0 145.81 602.09 L8.5 602.09 A8.50413 8.50413 -180 0 0 0 610.6 L0 612.48 Z" class="st3"/></g><g id="shape4-7" transform="translate(32.7357,-578.393)"><title>Foglio.138</title><desc>el.CompositeELResolver</desc><rect width="101.642" height="18.425" x="0" y="602.564" class="st4"/><text x="6.8" y="614.18" class="st5">el.CompositeELResolver</text></g><g id="shape5-10" transform="translate(-585.617,584.487) rotate(-90)"><title>Foglio.598</title><path d="M0 620.99 L541.42 620.99 L0 620.99 Z" class="st6"/><path d="M0 620.99 L541.42 620.99" class="st7"/></g><g id="shape6-13" transform="translate(64.9098,681.865) rotate(180)"><title>Foglio.599</title><path d="M0 620.99 L29.03 620.99 L0 620.99 Z" class="st6"/><path d="M0 620.99 L29.03 620.99" class="st7"/></g><g id="shape7-16" transform="translate(66.549,-545.935)"><title>Foglio.4</title><path d="M0 612.48 A8.50413 8.50413 -180 0 0 8.5 620.99 L147.43 620.99 A8.50413 8.50413 -180 0 0 155.93 612.48 L155.93 610.6 A8.50413 8.50413 -180 0 0 147.43 602.09 L8.5 602.09 A8.50413 8.50413 -180 0 0 0 610.6 L0 612.48 Z" class="st2"/></g><g id="shape8-18" transform="translate(64.1193,-549.715)"><title>Foglio.5</title><path d="M0 612.48 A8.50413 8.50413 -180 0 0 8.5 620.99 L146.18 620.99 A8.50413 8.50413 -180 0 0 154.68 612.48 L154.68 610.6 A8.50413 8.50413 -180 0 0 146.18 602.09 L8.5 602.09 A8.50413 8.50413 -180 0 0 0 610.6 L0 612.48 Z" class="st3"/></g><g id="shape9-20" transform="translate(69.3836,-550.188)"><title>Foglio.6</title><desc>jsp.ImplicitObjectELResolver</desc><rect width="112.981" height="18.425" x="0" y="602.564" class="st4"/><text x="5.58" y="614.18" class="st5">jsp.ImplicitObjectELResolver</text></g><g id="shape10-23" transform="translate(66.549,-517.66)"><title>Foglio.7</title><path d="M0 612.48 A8.50413 8.50413 -180 0 0 8.5 620.99 L146.9 620.99 A8.50413 8.50413 -180 0 0 155.4 612.48 L155.4 610.6 A8.50413 8.50413 -180 0 0 146.9 602.09 L8.5 602.09 A8.50413 8.50413 -180 0 0 0 610.6 L0 612.48 Z" class="st2"/></g><g id="shape11-25" transform="translate(64.588,-521.297)"><title>Foglio.8</title><path d="M0 612.48 A8.50413 8.50413 -180 0 0 8.5 620.99 L145.65 620.99 A8.50413 8.50413 -180 0 0 154.16 612.48 L154.16 610.6 A8.50413 8.50413 -180 0 0 145.65 602.09 L8.5 602.09 A8.50413 8.50413 -180 0 0 0 610.6 L0 612.48 Z" class="st3"/></g><g id="shape12-27" transform="translate(75.0529,-521.771)"><title>Foglio.9</title><desc>el.CompositeELResolver</desc><rect width="101.642" height="18.425" x="0" y="602.564" class="st4"/><text x="6.8" y="614.18" class="st5">el.CompositeELResolver</text></g><g id="shape13-30" transform="translate(95.638,-489.384)"><title>Foglio.10</title><path d="M0 612.48 A8.50413 8.50413 -180 0 0 8.5 620.99 L158 620.99 A8.50413 8.50413 -180 0 0 166.5 612.48 L166.5 610.6 A8.50413 8.50413 -180 0 0 158 602.09 L8.5 602.09 A8.50413 8.50413 -180 0 0 0 610.6 L0 612.48 Z" class="st2"/></g><g id="shape14-32" transform="translate(92.0607,-493.022)"><title>Foglio.11</title><path d="M0 612.48 A8.50413 8.50413 -180 0 0 8.5 620.99 L156.66 620.99 A8.50413 8.50413 -180 0 0 165.17 612.48 L165.17 610.6 A8.50413 8.50413 -180 0 0 156.66 602.09 L8.5 602.09 A8.50413 8.50413 -180 0 0 0 610.6 L0 612.48 Z" class="st3"/></g><g id="shape15-34" transform="translate(95.2598,-493.495)"><title>Foglio.12</title><desc>JSF’s el.CompositeELResolver</desc><rect width="118.691" height="18.425" x="0" y="602.564" class="st4"/><text x="4.21" y="614.18" class="st5">JSF’s el.CompositeELResolver</text></g><g id="shape16-37" transform="translate(123.985,-461.038)"><title>Foglio.13</title><path d="M0 612.48 A8.50413 8.50413 -180 0 0 8.5 620.99 L158 620.99 A8.50413 8.50413 -180 0 0 166.5 612.48 L166.5 610.6 A8.50413 8.50413 -180 0 0 158 602.09 L8.5 602.09 A8.50413 8.50413 -180 0 0 0 610.6 L0 612.48 Z" class="st2"/></g><g id="shape17-39" transform="translate(120.407,-464.675)"><title>Foglio.14</title><path d="M0 612.48 A8.50413 8.50413 -180 0 0 8.5 620.99 L156.66 620.99 A8.50413 8.50413 -180 0 0 165.17 612.48 L165.17 610.6 A8.50413 8.50413 -180 0 0 156.66 602.09 L8.5 602.09 A8.50413 8.50413 -180 0 0 0 610.6 L0 612.48 Z" class="st3"/></g><g id="shape18-41" transform="translate(123.242,-465.149)"><title>Foglio.15</title><desc>jsf.ImplicitObjectELResolver</desc><rect width="132.864" height="18.425" x="0" y="602.564" class="st4"/><text x="16.64" y="614.18" class="st5">jsf.ImplicitObjectELResolver</text></g><g id="shape19-44" transform="translate(123.985,-432.691)"><title>Foglio.16</title><path d="M0 612.48 A8.50413 8.50413 -180 0 0 8.5 620.99 L158 620.99 A8.50413 8.50413 -180 0 0 166.5 612.48 L166.5 610.6 A8.50413 8.50413 -180 0 0 158 602.09 L8.5 602.09 A8.50413 8.50413 -180 0 0 0 610.6 L0 612.48 Z" class="st2"/></g><g id="shape20-46" transform="translate(120.407,-436.329)"><title>Foglio.17</title><path d="M0 612.48 A8.50413 8.50413 -180 0 0 8.5 620.99 L156.66 620.99 A8.50413 8.50413 -180 0 0 165.17 612.48 L165.17 610.6 A8.50413 8.50413 -180 0 0 156.66 602.09 L8.5 602.09 A8.50413 8.50413 -180 0 0 0 610.6 L0 612.48 Z" class="st3"/></g><g id="shape21-48" transform="translate(123.242,-436.802)"><title>Foglio.18</title><desc>jsf.ManagedBeanELResolver</desc><rect width="132.864" height="18.425" x="0" y="602.564" class="st4"/><text x="14.62" y="614.18" class="st5">jsf.ManagedBeanELResolver</text></g><g id="shape22-51" transform="translate(124.998,-404.345)"><title>Foglio.19</title><path d="M0 612.48 A8.50413 8.50413 -180 0 0 8.5 620.99 L205.17 620.99 A8.50413 8.50413 -180 0 0 213.68 612.48 L213.68 610.6 A8.50413 8.50413 -180 0 0 205.17 602.09 L8.5 602.09 A8.50413 8.50413 -180 0 0 0 610.6 L0 612.48 Z" class="st2"/></g><g id="shape23-53" transform="translate(120.407,-407.983)"><title>Foglio.20</title><path d="M0 612.48 A8.50413 8.50413 -180 0 0 8.5 620.99 L203.46 620.99 A8.50413 8.50413 -180 0 0 211.97 612.48 L211.97 610.6 A8.50413 8.50413 -180 0 0 203.46 602.09 L8.5 602.09 A8.50413 8.50413 -180 0 0 -0 610.6 L0 612.48 Z" class="st3"/></g><g id="shape24-55" transform="translate(123.242,-408.456)"><title>Foglio.21</title><desc>ELResolvers in faces-config.xml</desc><rect width="144.567" height="18.425" x="0" y="602.564" class="st4"/><text x="15.37" y="614.18" class="st8">ELResolvers in faces-config.xml</text></g><g id="shape25-58" transform="translate(124.998,-362.96)"><title>Foglio.22</title><path d="M0 612.48 A8.50413 8.50413 -180 0 0 8.5 620.99 L205.17 620.99 A8.50413 8.50413 -180 0 0 213.68 612.48 L213.68 596.75 A8.50413 8.50413 -180 0 0 205.17 588.25 L8.5 588.25 A8.50413 8.50413 -180 0 0 -0 596.75 L0 612.48 Z" class="st2"/></g><g id="shape26-60" transform="translate(120.407,-367.212)"><title>Foglio.23</title><path d="M0 612.48 A8.50413 8.50413 -180 0 0 8.5 620.99 L203.46 620.99 A8.50413 8.50413 -180 0 0 211.97 612.48 L211.97 598.17 A8.50413 8.50413 -180 0 0 203.46 589.67 L8.5 589.67 A8.50413 8.50413 -180 0 0 0 598.17 L0 612.48 Z" class="st3"/></g><g id="shape27-62" transform="translate(128.911,-367.212)"><title>Foglio.24</title><desc>jsf.VariableResolverChainWrapper (Supports legacy jsf.Variabl...</desc><rect width="150.236" height="31.323" x="0" y="589.666" class="st4"/><text x="13.76" y="602.93" class="st5">jsf.VariableResolverChainWrapper<tspan x="5.09" class="st9" dy="1.2em">(Supports legacy jsf.VariableResolvers)</tspan></text></g><g id="shape28-66" transform="translate(124.998,-322.637)"><title>Foglio.25</title><path d="M-0 612.48 A8.50413 8.50413 -180 0 0 8.5 620.99 L205.17 620.99 A8.50413 8.50413 -180 0 0 213.68 612.48 L213.68 598.95 A8.50413 8.50413 -180 0 0 205.17 590.45 L8.5 590.45 A8.50413 8.50413 -180 0 0 -0 598.95 L0 612.48 Z" class="st2"/></g><g id="shape29-68" transform="translate(120.407,-326.889)"><title>Foglio.26</title><path d="M0 612.48 A8.50413 8.50413 -180 0 0 8.5 620.99 L203.46 620.99 A8.50413 8.50413 -180 0 0 211.97 612.48 L211.97 600.37 A8.50413 8.50413 -180 0 0 203.46 591.86 L8.5 591.86 A8.50413 8.50413 -180 0 0 -0 600.37 L0 612.48 Z" class="st3"/></g><g id="shape30-70" transform="translate(128.911,-326.889)"><title>Foglio.27</title><desc>jsf.PropertyResolverChainWrapper (Supports legacy jsf.Propert...</desc><rect width="150.236" height="29.126" x="0" y="591.863" class="st4"/><text x="13.32" y="604.03" class="st5">jsf.PropertyResolverChainWrapper<tspan x="4.65" class="st9" dy="1.2em">(Supports legacy jsf.PropertyResolvers)</tspan></text></g><g id="shape31-74" transform="translate(125.626,-294.432)"><title>Foglio.28</title><path d="M0 612.48 A8.50413 8.50413 -180 0 0 8.5 620.99 L232.89 620.99 A8.50413 8.50413 -180 0 0 241.39 612.48 L241.39 610.6 A8.50413 8.50413 -180 0 0 232.89 602.09 L8.5 602.09 A8.50413 8.50413 -180 0 0 0 610.6 L0 612.48 Z" class="st2"/></g><g id="shape32-76" transform="translate(120.407,-298.07)"><title>Foglio.29</title><path d="M0 612.48 A8.50413 8.50413 -180 0 0 8.5 620.99 L232.46 620.99 A8.50413 8.50413 -180 0 0 240.96 612.48 L240.96 610.6 A8.50413 8.50413 -180 0 0 232.46 602.09 L8.5 602.09 A8.50413 8.50413 -180 0 0 0 610.6 L0 612.48 Z" class="st3"/></g><g id="shape33-78" transform="translate(123.606,-298.543)"><title>Foglio.30</title><desc>ELResolvers from Application.addELResolver()</desc><rect width="175.384" height="18.425" x="0" y="602.564" class="st4"/><text x="4.1" y="614.18" class="st5">ELResolvers from Application.addELResolver()</text></g><g id="shape34-81" transform="translate(96.6515,-252.55)"><title>Foglio.31</title><path d="M0 612.48 A8.50413 8.50413 -180 0 0 8.5 620.99 L205.17 620.99 A8.50413 8.50413 -180 0 0 213.68 612.48 L213.68 599.73 A8.50413 8.50413 -180 0 0 205.17 591.23 L8.5 591.23 A8.50413 8.50413 -180 0 0 -0 599.73 L0 612.48 Z" class="st2"/></g><g id="shape35-83" transform="translate(92.0607,-256.802)"><title>Foglio.32</title><path d="M0 612.48 A8.50413 8.50413 -180 0 0 8.5 620.99 L203.46 620.99 A8.50413 8.50413 -180 0 0 211.97 612.48 L211.97 601.15 A8.50413 8.50413 -180 0 0 203.46 592.64 L8.5 592.64 A8.50413 8.50413 -180 0 0 0 601.15 L0 612.48 Z" class="st3"/></g><g id="shape36-85" transform="translate(96.3127,-256.802)"><title>Foglio.33</title><desc>Other ELResolvers added via JspApplicationContext.addELResolv...</desc><rect width="150.236" height="28.346" x="0" y="592.642" class="st4"/><text x="22.87" y="604.42" class="st5">Other ELResolvers added via <tspan x="4.42" class="st10" dy="1.2em">JspApplicationContext.addELResolver()</tspan></text></g><g id="shape37-89" transform="translate(67.3578,-222.928)"><title>Foglio.34</title><path d="M0 612.48 A8.50413 8.50413 -180 0 0 8.5 620.99 L163.6 620.99 A8.50413 8.50413 -180 0 0 172.1 612.48 L172.1 610.6 A8.50413 8.50413 -180 0 0 163.6 602.09 L8.5 602.09 A8.50413 8.50413 -180 0 0 0 610.6 L0 612.48 Z" class="st2"/></g><g id="shape38-91" transform="translate(64.2185,-226.566)"><title>Foglio.35</title><path d="M0 612.48 A8.50413 8.50413 -180 0 0 8.5 620.99 L162.22 620.99 A8.50413 8.50413 -180 0 0 170.73 612.48 L170.73 610.6 A8.50413 8.50413 -180 0 0 162.22 602.09 L8.5 602.09 A8.50413 8.50413 -180 0 0 0 610.6 L0 612.48 Z" class="st3"/></g><g id="shape39-93" transform="translate(80.7222,-227.039)"><title>Foglio.36</title><desc>el.MapELResolver</desc><rect width="101.642" height="18.425" x="0" y="602.564" class="st4"/><text x="18.14" y="614.18" class="st5">el.MapELResolver</text></g><g id="shape40-96" transform="translate(67.3578,-194.582)"><title>Foglio.37</title><path d="M0 612.48 A8.50413 8.50413 -180 0 0 8.5 620.99 L163.6 620.99 A8.50413 8.50413 -180 0 0 172.1 612.48 L172.1 610.6 A8.50413 8.50413 -180 0 0 163.6 602.09 L8.5 602.09 A8.50413 8.50413 -180 0 0 0 610.6 L0 612.48 Z" class="st2"/></g><g id="shape41-98" transform="translate(64.2185,-198.22)"><title>Foglio.38</title><path d="M0 612.48 A8.50413 8.50413 -180 0 0 8.5 620.99 L162.22 620.99 A8.50413 8.50413 -180 0 0 170.73 612.48 L170.73 610.6 A8.50413 8.50413 -180 0 0 162.22 602.09 L8.5 602.09 A8.50413 8.50413 -180 0 0 0 610.6 L0 612.48 Z" class="st3"/></g><g id="shape42-100" transform="translate(69.3836,-198.692)"><title>Foglio.39</title><desc>el.ResourceBundleELResolver</desc><rect width="118.65" height="18.425" x="0" y="602.564" class="st4"/><text x="4.85" y="614.18" class="st5">el.ResourceBundleELResolver</text></g><g id="shape43-103" transform="translate(67.1057,-166.164)"><title>Foglio.40</title><path d="M0 612.48 A8.50413 8.50413 -180 0 0 8.5 620.99 L163.6 620.99 A8.50413 8.50413 -180 0 0 172.1 612.48 L172.1 610.6 A8.50413 8.50413 -180 0 0 163.6 602.09 L8.5 602.09 A8.50413 8.50413 -180 0 0 0 610.6 L0 612.48 Z" class="st2"/></g><g id="shape44-105" transform="translate(63.9664,-169.802)"><title>Foglio.41</title><path d="M0 612.48 A8.50413 8.50413 -180 0 0 8.5 620.99 L162.22 620.99 A8.50413 8.50413 -180 0 0 170.73 612.48 L170.73 610.6 A8.50413 8.50413 -180 0 0 162.22 602.09 L8.5 602.09 A8.50413 8.50413 -180 0 0 0 610.6 L0 612.48 Z" class="st3"/></g><g id="shape45-107" transform="translate(57.7304,-170.014)"><title>Foglio.42</title><desc>el.ListELResolver</desc><rect width="101.642" height="18.425" x="0" y="602.564" class="st4"/><text x="19.7" y="614.18" class="st5">el.ListELResolver</text></g><g id="shape46-110" transform="translate(67.3578,-137.889)"><title>Foglio.43</title><path d="M0 612.48 A8.50413 8.50413 -180 0 0 8.5 620.99 L163.6 620.99 A8.50413 8.50413 -180 0 0 172.1 612.48 L172.1 610.6 A8.50413 8.50413 -180 0 0 163.6 602.09 L8.5 602.09 A8.50413 8.50413 -180 0 0 0 610.6 L0 612.48 Z" class="st2"/></g><g id="shape47-112" transform="translate(64.2185,-141.526)"><title>Foglio.44</title><path d="M0 612.48 A8.50413 8.50413 -180 0 0 8.5 620.99 L162.22 620.99 A8.50413 8.50413 -180 0 0 170.73 612.48 L170.73 610.6 A8.50413 8.50413 -180 0 0 162.22 602.09 L8.5 602.09 A8.50413 8.50413 -180 0 0 0 610.6 L0 612.48 Z" class="st3"/></g><g id="shape48-114" transform="translate(60.1597,-141.667)"><title>Foglio.45</title><desc>el.ArrayELResolver</desc><rect width="101.642" height="18.425" x="0" y="602.564" class="st4"/><text x="16.36" y="614.18" class="st5">el.ArrayELResolver</text></g><g id="shape49-117" transform="translate(66.8537,-109.542)"><title>Foglio.46</title><path d="M0 612.48 A8.50413 8.50413 -180 0 0 8.5 620.99 L163.6 620.99 A8.50413 8.50413 -180 0 0 172.1 612.48 L172.1 610.6 A8.50413 8.50413 -180 0 0 163.6 602.09 L8.5 602.09 A8.50413 8.50413 -180 0 0 0 610.6 L0 612.48 Z" class="st2"/></g><g id="shape50-119" transform="translate(64.4827,-113.18)"><title>Foglio.47</title><path d="M0 612.48 A8.50413 8.50413 -180 0 0 8.5 620.99 L162.22 620.99 A8.50413 8.50413 -180 0 0 170.73 612.48 L170.73 610.6 A8.50413 8.50413 -180 0 0 162.22 602.09 L8.5 602.09 A8.50413 8.50413 -180 0 0 0 610.6 L0 612.48 Z" class="st3"/></g><g id="shape51-121" transform="translate(57.7304,-113.321)"><title>Foglio.48</title><desc>el.BeanELResolver</desc><rect width="101.642" height="18.425" x="0" y="602.564" class="st4"/><text x="16.58" y="614.18" class="st5">el.BeanELResolver</text></g><g id="shape52-124" transform="translate(66.8537,-81.125)"><title>Foglio.49</title><path d="M0 612.48 A8.50413 8.50413 -180 0 0 8.5 620.99 L163.6 620.99 A8.50413 8.50413 -180 0 0 172.1 612.48 L172.1 610.6 A8.50413 8.50413 -180 0 0 163.6 602.09 L8.5 602.09 A8.50413 8.50413 -180 0 0 0 610.6 L0 612.48 Z" class="st2"/></g><g id="shape53-126" transform="translate(64.4827,-84.7628)"><title>Foglio.50</title><path d="M0 612.48 A8.50413 8.50413 -180 0 0 8.5 620.99 L162.22 620.99 A8.50413 8.50413 -180 0 0 170.73 612.48 L170.73 610.6 A8.50413 8.50413 -180 0 0 162.22 602.09 L8.5 602.09 A8.50413 8.50413 -180 0 0 0 610.6 L0 612.48 Z" class="st3"/></g><g id="shape54-128" transform="translate(68.8795,-85.2356)"><title>Foglio.51</title><desc>jsp.ScopedAttributeELResolver</desc><rect width="119.559" height="18.425" x="0" y="602.564" class="st4"/><text x="4.42" y="614.18" class="st5">jsp.ScopedAttributeELResolver</text></g><g id="shape55-131" transform="translate(64.401,711.629) rotate(180)"><title>Foglio.600</title><path d="M0 620.99 L29.03 620.99 L0 620.99 Z" class="st6"/><path d="M0 620.99 L29.03 620.99" class="st7"/></g><g id="shape56-134" transform="translate(64.3121,1005.72) rotate(180)"><title>Foglio.601</title><path d="M0 620.99 L29.03 620.99 L0 620.99 Z" class="st6"/><path d="M0 620.99 L29.03 620.99" class="st7"/></g><g id="shape57-137" transform="translate(64.2185,1034.78) rotate(180)"><title>Foglio.602</title><path d="M0 620.99 L29.03 620.99 L0 620.99 Z" class="st6"/><path d="M0 620.99 L29.03 620.99" class="st7"/></g><g id="shape58-140" transform="translate(64.1045,1062.77) rotate(180)"><title>Foglio.603</title><path d="M0 620.99 L29.03 620.99 L0 620.99 Z" class="st6"/><path d="M0 620.99 L29.03 620.99" class="st7"/></g><g id="shape59-143" transform="translate(64.2185,1091.47) rotate(180)"><title>Foglio.604</title><path d="M0 620.99 L29.03 620.99 L0 620.99 Z" class="st6"/><path d="M0 620.99 L29.03 620.99" class="st7"/></g><g id="shape60-146" transform="translate(64.401,1119.46) rotate(180)"><title>Foglio.605</title><path d="M0 620.99 L29.03 620.99 L0 620.99 Z" class="st6"/><path d="M0 620.99 L29.03 620.99" class="st7"/></g><g id="shape61-149" transform="translate(64.515,1148.17) rotate(180)"><title>Foglio.606</title><path d="M0 620.99 L29.03 620.99 L0 620.99 Z" class="st6"/><path d="M0 620.99 L29.03 620.99" class="st7"/></g><g id="shape62-152" transform="translate(-545.932,350.58) rotate(-90)"><title>Foglio.607</title><path d="M0 620.99 L251.36 620.99 L0 620.99 Z" class="st6"/><path d="M0 620.99 L251.36 620.99" class="st7"/></g><g id="shape63-155" transform="translate(-514.751,313.503) rotate(-90)"><title>Foglio.608</title><path d="M0 620.99 L185.73 620.99 L0 620.99 Z" class="st6"/><path d="M0 620.99 L185.73 620.99" class="st7"/></g><g id="shape64-158" transform="translate(91.7279,740.448) rotate(180)"><title>Foglio.609</title><path d="M0 620.99 L16.68 620.99 L0 620.99 Z" class="st6"/><path d="M0 620.99 L16.68 620.99" class="st7"/></g><g id="shape65-161" transform="translate(120.407,768.038) rotate(180)"><title>Foglio.610</title><path d="M0 620.99 L14.17 620.99 L0 620.99 Z" class="st6"/><path d="M0 620.99 L14.17 620.99" class="st7"/></g><g id="shape66-164" transform="translate(120.407,796.385) rotate(180)"><title>Foglio.611</title><path d="M0 620.99 L14.17 620.99 L0 620.99 Z" class="st6"/><path d="M0 620.99 L14.17 620.99" class="st7"/></g><g id="shape67-167" transform="translate(120.407,825.298) rotate(180)"><title>Foglio.612</title><path d="M0 620.99 L14.17 620.99 L0 620.99 Z" class="st6"/><path d="M0 620.99 L14.17 620.99" class="st7"/></g><g id="shape68-170" transform="translate(120.407,858.747) rotate(180)"><title>Foglio.613</title><path d="M0 620.99 L14.17 620.99 L0 620.99 Z" class="st6"/><path d="M0 620.99 L14.17 620.99" class="st7"/></g><g id="shape69-173" transform="translate(120.407,900.133) rotate(180)"><title>Foglio.614</title><path d="M0 620.99 L14.17 620.99 L0 620.99 Z" class="st6"/><path d="M0 620.99 L14.17 620.99" class="st7"/></g><g id="shape70-176" transform="translate(120.407,934.489) rotate(180)"><title>Foglio.615</title><path d="M0 620.99 L14.17 620.99 L0 620.99 Z" class="st6"/><path d="M0 620.99 L14.17 620.99" class="st7"/></g><g id="shape71-179" transform="translate(91.9571,971.566) rotate(180)"><title>Foglio.616</title><path d="M0 620.99 L16.76 620.99 L0 620.99 Z" class="st6"/><path d="M0 620.99 L16.76 620.99" class="st7"/></g><g id="shape76-182" transform="translate(66.6375,-52.3757)"><title>Foglio.76</title><path d="M0 612.48 A8.50413 8.50413 -180 0 0 8.5 620.99 L163.6 620.99 A8.50413 8.50413 -180 0 0 172.1 612.48 L172.1 610.6 A8.50413 8.50413 -180 0 0 163.6 602.09 L8.5 602.09 A8.50413 8.50413 -180 0 0 0 610.6 L0 612.48 Z" class="st2"/></g><g id="shape77-184" transform="translate(64.2665,-56.0135)"><title>Foglio.77</title><path d="M0 612.48 A8.50413 8.50413 -180 0 0 8.5 620.99 L162.22 620.99 A8.50413 8.50413 -180 0 0 170.73 612.48 L170.73 610.6 A8.50413 8.50413 -180 0 0 162.22 602.09 L8.5 602.09 A8.50413 8.50413 -180 0 0 0 610.6 L0 612.48 Z" class="st3"/></g><g id="shape78-186" transform="translate(53.9866,-56.6277)"><title>Foglio.78</title><desc>jsp.ScopedAttributeELResolver</desc><rect width="119.559" height="18.425" x="0" y="602.564" class="st4"/><text x="21.54" y="614.18" class="st5">jsp.<tspan class="st10">Import</tspan>ELResolver</text></g><g id="shape79-190" transform="translate(64.2988,1176.92) rotate(180)"><title>Foglio.79</title><path d="M0 620.99 L29.03 620.99 L0 620.99 Z" class="st6"/><path d="M0 620.99 L29.03 620.99" class="st7"/></g><g id="shape80-193" transform="translate(66.6375,-24.1711)"><title>Foglio.80</title><path d="M0 612.48 A8.50413 8.50413 -180 0 0 8.5 620.99 L163.6 620.99 A8.50413 8.50413 -180 0 0 172.1 612.48 L172.1 610.6 A8.50413 8.50413 -180 0 0 163.6 602.09 L8.5 602.09 A8.50413 8.50413 -180 0 0 0 610.6 L0 612.48 Z" class="st2"/></g><g id="shape81-195" transform="translate(64.2665,-27.8089)"><title>Foglio.81</title><path d="M0 612.48 A8.50413 8.50413 -180 0 0 8.5 620.99 L162.22 620.99 A8.50413 8.50413 -180 0 0 170.73 612.48 L170.73 610.6 A8.50413 8.50413 -180 0 0 162.22 602.09 L8.5 602.09 A8.50413 8.50413 -180 0 0 0 610.6 L0 612.48 Z" class="st3"/></g><g id="shape82-197" transform="translate(60.1597,-28.2813)"><title>Foglio.82</title><desc>jsp.ScopedAttributeELResolver</desc><rect width="119.559" height="18.425" x="0" y="602.564" class="st4"/><text x="15.31" y="614.18" class="st5">jsp.<tspan class="st10">NotFound</tspan>ELResolver</text></g><g id="shape83-201" transform="translate(64.2988,1205.12) rotate(180)"><title>Foglio.83</title><path d="M0 620.99 L29.03 620.99 L0 620.99 Z" class="st6"/><path d="M0 620.99 L29.03 620.99" class="st7"/></g></g></svg>