<svg xmlns="http://www.w3.org/2000/svg" xmlns:xlink="http://www.w3.org/1999/xlink" width="542.392" height="332.628" class="st13" color-interpolation-filters="sRGB" viewBox="0 0 406.794 249.471" xml:space="preserve"><style type="text/css">.st1,.st2{stroke-linecap:round;stroke-linejoin:round;stroke-width:.72}.st1{fill:#fff;stroke:none}.st2{marker-end:url(#mrkr13-8);stroke:#000}.st3,.st4{fill:#000}.st3,.st4,.st5{stroke:#000}.st3{fill-opacity:1;stroke-opacity:1;stroke-width:.22222222222222}.st4,.st5,.st6{stroke-linecap:round;stroke-linejoin:round;stroke-width:.72}.st5{fill:#fff}.st6{fill:none;stroke:none}.st7{fill:#000;font-family:Arial;font-size:.833336em;font-weight:700}.st8{font-size:1em}.st9{baseline-shift:-32.4947%;font-size:.649894em}.st10{font-size:1em;font-weight:400}.st11{marker-end:url(#mrkr13-77);stroke:#000;stroke-linecap:round;stroke-linejoin:round;stroke-width:2.16}.st12{fill:#000;fill-opacity:1;stroke:#000;stroke-opacity:1;stroke-width:.46153846153846}.st13{fill:none;fill-rule:evenodd;font-size:12;overflow:visible;stroke-linecap:square;stroke-miterlimit:3}</style><defs id="Markers"><g id="lend13"><path d="M 3 1 L -0 0 L 3 -1 L 3 1" style="stroke:none"/></g><marker id="mrkr13-8" class="st3" markerUnits="strokeWidth" orient="auto" refX="-13.5"><use transform="scale(-4.5,-4.5)" xlink:href="#lend13"/></marker><marker id="mrkr13-77" class="st12" markerUnits="strokeWidth" orient="auto" refX="-6.5"><use transform="scale(-2.1666666666667,-2.1666666666667)" xlink:href="#lend13"/></marker></defs><g><title>Pagina 1</title><g id="shape139-1" transform="translate(0.72,-0.72)"><title>Foglio.139</title><rect width="405.354" height="248.031" x="0" y="1.44" class="st1"/></g><g id="shape110-3" transform="translate(-93.5824,256.322) rotate(39.7433) scale(1,-1)"><title>Foglio.110</title><path d="M0 249.47 L44.74 249.47" class="st2"/></g><g id="shape128-9" transform="translate(293.415,251.356) rotate(130)"><title>Foglio.128</title><path d="M5.67 249.47 L0 249.47 L2.83 239.83 L5.67 249.47 Z" class="st4"/></g><g id="shape1-11" transform="translate(9.22394,-156.626)"><title>Foglio.1</title><rect width="56.693" height="56.693" x="0" y="192.779" class="st5"/></g><g id="shape2-13" transform="translate(9.22394,-176.468)"><title>Foglio.2</title><desc>JSP Syntax</desc><rect width="42.52" height="28.346" x="0" y="221.125" class="st6"/><text x="11.81" y="232.3" class="st7">JSP<tspan x="4.86" class="st8" dy="1.2em">Syntax</tspan></text></g><g id="shape3-17" transform="translate(9.22394,-85.7594)"><title>Foglio.3</title><rect width="56.693" height="56.693" x="0" y="192.779" class="st5"/></g><g id="shape6-19" transform="translate(9.22394,-105.602)"><title>Foglio.6</title><desc>XML Syntax</desc><rect width="42.52" height="28.346" x="0" y="221.125" class="st6"/><text x="10.71" y="232.3" class="st7">XML<tspan x="4.86" class="st8" dy="1.2em">Syntax</tspan></text></g><g id="shape7-23" transform="translate(108.437,-122.61)"><title>Foglio.7</title><rect width="56.693" height="56.693" x="0" y="192.779" class="st5"/></g><g id="shape8-25" transform="translate(108.437,-142.452)"><title>Foglio.8</title><desc>XML View</desc><rect width="42.52" height="28.346" x="0" y="221.125" class="st6"/><text x="10.71" y="232.3" class="st7">XML<tspan x="9.87" class="st8" dy="1.2em">View</tspan></text></g><g id="shape9-29" transform="translate(225.01,327.525) rotate(-39.6222) scale(1,-1)"><title>Foglio.9</title><path d="M0 249.47 L45.33 249.47" class="st2"/></g><g id="shape10-34" transform="translate(289.905,-55.9801) rotate(50)"><title>Foglio.10</title><path d="M5.67 249.47 L0 249.47 L2.83 239.83 L5.67 249.47 Z" class="st4"/></g><g id="shape11-36" transform="translate(6.38929,-224.402)"><title>Foglio.11</title><desc>JSP Pages</desc><rect width="62.617" height="17.263" x="0" y="232.209" class="st6"/><text x="5.74" y="243.84" class="st7">JSP Pages</text></g><g id="shape12-39" transform="translate(99.9326,-210.356)"><title>Foglio.12</title><desc>TRANSLATION PHASE</desc><rect width="124.98" height="17.263" x="0" y="232.209" class="st6"/><text x="8.04" y="243.84" class="st7">TRANSLATION PHASE</text></g><g id="shape13-42" transform="translate(176.213,-182.137)"><title>Foglio.13</title><desc>TLV1 – ERRORS OR OK</desc><rect width="124.98" height="17.263" x="0" y="232.209" class="st6"/><text x="6.79" y="243.84" class="st7">TLV<tspan class="st9" dy="-.287em">1</tspan><tspan class="st8" dy=".186em"> </tspan>– <tspan class="st10">ERRORS OR OK</tspan></text></g><g id="shape14-48" transform="translate(176.34,-165.002)"><title>Foglio.14</title><desc>TLV2 – ERRORS OR OK</desc><rect width="124.98" height="17.263" x="0" y="232.209" class="st6"/><text x="6.79" y="243.84" class="st7">TLV<tspan class="st9" dy="-.287em">2</tspan><tspan class="st8" dy=".186em"> </tspan>– <tspan class="st10">ERRORS OR OK</tspan></text></g><g id="shape140-54" transform="translate(-22.1569,325.442) rotate(37.2498) scale(1,-1)"><title>Foglio.140</title><path d="M0 249.47 L25.79 249.47" class="st2"/></g><g id="shape141-59" transform="translate(342.738,300.396) rotate(130)"><title>Foglio.141</title><path d="M5.67 249.47 L0 249.47 L2.83 239.83 L5.67 249.47 Z" class="st4"/></g><g id="shape142-61" transform="translate(142.452,-43.2397)"><title>Foglio.142</title><rect width="150.236" height="56.693" x="0" y="192.779" class="st5"/></g><g id="shape143-63" transform="translate(153.791,-54.5783)"><title>Foglio.143</title><desc>JSP Implementation Class</desc><rect width="85.039" height="34.016" x="0" y="215.456" class="st6"/><text x="4" y="223.46" class="st7">JSP <tspan x="4" class="st8" dy="1.2em">Implementation </tspan><tspan x="4" class="st8" dy="1.2em">Class</tspan></text></g><g id="shape144-68" transform="translate(197.728,-9.22394)"><title>Foglio.144</title><desc>REQUEST PROCESSING PHASE</desc><rect width="127.559" height="23.06" x="0" y="226.412" class="st6"/><text x="4.88" y="234.94" class="st7">REQUEST PROCESSING <tspan x="46.55" class="st8" dy="1.2em">PHASE</tspan></text></g><g id="shape145-72" transform="translate(292.689,441.706) scale(1,-1)"><title>Foglio.145</title><path d="M0 249.47 L82.48 249.47" class="st11"/></g><g id="shape146-78" transform="translate(624.932,187.665) rotate(90)"><title>Foglio.146</title><path d="M8.79 249.47 L0 249.47 L4.39 235.56 L8.79 249.47 Z" class="st4"/></g><g id="shape147-80" transform="translate(389.066,411.801) rotate(180)"><title>Foglio.147</title><path d="M0 249.47 L82.48 249.47" class="st11"/></g><g id="shape148-85" transform="translate(56.8233,157.759) rotate(-90) scale(-1,1)"><title>Foglio.148</title><path d="M8.79 249.47 L0 249.47 L4.39 235.56 L8.79 249.47 Z" class="st4"/></g><g id="shape149-87" transform="translate(315.366,-88.3389)"><title>Foglio.149</title><desc>Request</desc><rect width="56.948" height="17.263" x="0" y="232.209" class="st6"/><text x="8.75" y="243.84" class="st7">Request</text></g><g id="shape150-90" transform="translate(319.618,-57.4129)"><title>Foglio.150</title><desc>Response</desc><rect width="56.948" height="17.263" x="0" y="232.209" class="st6"/><text x="4.58" y="243.84" class="st7">Response</text></g></g></svg>